<?xml version="1.0" standalone="no"?><!DOCTYPE svg PUBLIC "-//W3C//DTD SVG 1.1//EN" "http://www.w3.org/Graphics/SVG/1.1/DTD/svg11.dtd"><svg t="1706356188630" class="icon" viewBox="0 0 1024 1024" version="1.1" xmlns="http://www.w3.org/2000/svg" p-id="2223" xmlns:xlink="http://www.w3.org/1999/xlink" width="128" height="128"><path d="M352.785978 274.620665h-47.338273a469.437034 469.437034 0 0 1-81.756911 78.17543h144.867864q-19.364278-24.382398-45.183315-55.219554zM349.922817 534.945758h341.373802v38.728556H349.922817zM349.922817 737.188136h364.319561v41.591717h-364.319561z" fill="#F39818" p-id="2224"></path><path d="M906.509218 0H117.480665A117.480665 117.480665 0 0 0 0 117.480665v789.03867a117.480665 117.480665 0 0 0 117.480665 117.480665h789.03867a117.480665 117.480665 0 0 0 117.480665-117.480665v-789.03867A117.480665 117.480665 0 0 0 906.509218 0z m-99.047167 867.042109h-93.229791v-23.006462h-364.31956v22.945759h-97.529591v-398.009762h532.163535v170.697018h-434.633944v31.555477h457.549351z m51.597605-592.380975H751.524176q19.364278 20.800917 38.010236 41.591716l-50.201434 36.573597h116.934337v103.235679h-97.529591V425.933171H282.501946v30.118838h-97.52959V352.785978h37.291916q-16.531468-21.509119-57.374514-65.255794 78.165313-57.364396 113.312388-130.51159h98.96623q-11.482996 25.819037-24.382398 49.483115h185.022942v68.129073h-137.694786q21.519236 23.653961 42.360622 47.358508l-41.591716 30.837157h69.515126q-6.454759-18.635841-12.909518-38.010236l81.038591-13.627838q7.881281 25.100717 15.77268 51.597605h164.909993q-29.410635-37.291916-51.597605-60.955994l22.25779-17.199202h-32.273796a504.280594 504.280594 0 0 1-53.074713 69.565713q-20.811034-15.792914-76.050823-52.366511 51.597605-56.656194 84.630189-134.831624h99.68455a506.65813 506.65813 0 0 1-19.364278 49.483115h165.678898z" fill="#F39818" p-id="2225"></path></svg>