<?xml version="1.0" standalone="no"?><!DOCTYPE svg PUBLIC "-//W3C//DTD SVG 1.1//EN" "http://www.w3.org/Graphics/SVG/1.1/DTD/svg11.dtd"><svg t="1702450752200" class="icon" viewBox="0 0 1024 1024" version="1.1" xmlns="http://www.w3.org/2000/svg" p-id="4426" xmlns:xlink="http://www.w3.org/1999/xlink" width="128" height="128"><path d="M905.3 496.1c-14.6-34.3-35.4-65-61.8-91.5-26.5-26.5-57.3-47.3-91.5-61.8-35.6-15.1-73.3-22.8-112-22.8H205.3l185.4-185.4-45.3-45.3-240 240c-12.5 12.5-12.5 32.8 0 45.3l240 240 45.3-45.3L205.3 384H640c123.5 0 224 100.5 224 224S763.5 832 640 832H192v64h448c38.7 0 76.4-7.7 111.9-22.7 34.3-14.6 65-35.4 91.5-61.8 26.5-26.5 47.3-57.3 61.8-91.5 15.1-35.6 22.8-73.3 22.8-112s-7.7-76.4-22.7-111.9z" p-id="4427"></path></svg>