<?xml version="1.0" standalone="no"?><!DOCTYPE svg PUBLIC "-//W3C//DTD SVG 1.1//EN" "http://www.w3.org/Graphics/SVG/1.1/DTD/svg11.dtd"><svg t="1714621215600" class="icon" viewBox="0 0 1024 1024" version="1.1" xmlns="http://www.w3.org/2000/svg" p-id="4313" xmlns:xlink="http://www.w3.org/1999/xlink" width="128" height="128"><path d="M470.916 955.481v-54.815a41.111 41.111 0 0 1 82.223 0v54.815a41.111 41.111 0 1 1-82.223 0z m325.602-100.86l-38.755-38.809a41.111 41.111 0 0 1 58.214-58.158l38.754 38.809a41.111 41.111 0 0 1-58.213 58.158z m-627.085 0a41.166 41.166 0 0 1 0-58.158l38.755-38.81a41.111 41.111 0 0 1 58.158 58.16l-38.754 38.808a41.111 41.111 0 0 1-58.159 0z m54.815-342.648a287.779 287.779 0 1 1 287.78 287.779 288.108 288.108 0 0 1-287.78-287.78z m82.223 0a205.556 205.556 0 1 0 205.556-205.557 205.72 205.72 0 0 0-205.556 205.557z m594.195 41.11a41.111 41.111 0 0 1 0-82.222h54.815a41.111 41.111 0 0 1 0 82.223z m-832.147 0a41.111 41.111 0 0 1 0-82.222h54.815a41.111 41.111 0 0 1 0 82.223z m689.244-286.846a41.166 41.166 0 0 1 0-58.16l38.755-38.808a41.111 41.111 0 0 1 58.213 58.159l-38.754 38.809a41.166 41.166 0 0 1-58.214 0z m-549.63 0l-38.754-38.81a41.111 41.111 0 0 1 58.158-58.158l38.755 38.809a41.166 41.166 0 0 1 0 58.159 41.111 41.111 0 0 1-58.16 0z m262.783-142.903V68.519a41.111 41.111 0 1 1 82.223 0v54.815a41.111 41.111 0 1 1-82.223 0z" p-id="4314"></path></svg>