<?xml version="1.0" standalone="no"?><!DOCTYPE svg PUBLIC "-//W3C//DTD SVG 1.1//EN" "http://www.w3.org/Graphics/SVG/1.1/DTD/svg11.dtd"><svg t="1702459716020" class="icon" viewBox="0 0 1024 1024" version="1.1" xmlns="http://www.w3.org/2000/svg" p-id="2903" xmlns:xlink="http://www.w3.org/1999/xlink" width="128" height="128"><path d="M870.4 874.057143h-171.885714c-7.314286 0-10.971429 3.657143-14.628572 7.314286l-95.085714 95.085714c-43.885714 43.885714-117.028571 43.885714-160.914286 0L336.457143 877.714286c-3.657143-3.657143-7.314286-7.314286-14.628572-7.314286H149.942857C69.485714 874.057143 0 804.571429 0 720.457143V190.171429c0-84.114286 69.485714-149.942857 149.942857-149.942858h720.457143c84.114286 0 149.942857 69.485714 149.942857 149.942858v530.285714c0 84.114286-65.828571 153.6-149.942857 153.6z m0-76.8c40.228571 0 76.8-32.914286 76.8-76.8V190.171429c0-40.228571-32.914286-76.8-76.8-76.8H149.942857C109.714286 113.371429 73.142857 149.942857 73.142857 190.171429v530.285714c0 40.228571 32.914286 76.8 76.8 76.8h171.885714c25.6 0 47.542857 10.971429 65.828572 29.257143l95.085714 95.085714c14.628571 14.628571 36.571429 14.628571 54.857143 0l95.085714-95.085714c18.285714-18.285714 40.228571-29.257143 65.828572-29.257143h171.885714zM281.6 398.628571c32.914286 0 58.514286 25.6 58.514286 58.514286v36.571429c0 32.914286-25.6 58.514286-58.514286 58.514285s-58.514286-25.6-58.514286-58.514285v-36.571429c3.657143-32.914286 25.6-58.514286 58.514286-58.514286z m226.742857 0c32.914286 0 58.514286 25.6 58.514286 58.514286v36.571429c0 32.914286-25.6 58.514286-58.514286 58.514285-32.914286 0-58.514286-25.6-58.514286-58.514285v-36.571429c3.657143-32.914286 29.257143-58.514286 58.514286-58.514286z m230.4 0c32.914286 0 58.514286 25.6 58.514286 58.514286v36.571429c0 32.914286-25.6 58.514286-58.514286 58.514285s-58.514286-25.6-58.514286-58.514285v-36.571429c0-32.914286 25.6-58.514286 58.514286-58.514286z" p-id="2904"></path></svg>