<?xml version="1.0" standalone="no"?><!DOCTYPE svg PUBLIC "-//W3C//DTD SVG 1.1//EN" "http://www.w3.org/Graphics/SVG/1.1/DTD/svg11.dtd"><svg t="1714621688716" class="icon" viewBox="0 0 1024 1024" version="1.1" xmlns="http://www.w3.org/2000/svg" p-id="2500" xmlns:xlink="http://www.w3.org/1999/xlink" width="128" height="128"><path d="M669.184 851.882667l7.808-3.413334a380.16 380.16 0 0 0 204.288-226.304c2.005333-5.973333-2.858667-12.288-9.557333-11.946666l-11.221334 0.426666-11.264 0.128c-240.810667 0-436.053333-195.2-436.053333-436.053333 0-7.466667 0.213333-14.933333 0.597333-22.442667 0.341333-6.698667-5.973333-11.562667-11.946666-9.557333A380.245333 380.245333 0 0 0 165.973333 370.261333a379.178667 379.178667 0 0 0 488.021334 487.68l4.778666-1.834666 2.944-1.152c4.864-1.92 10.069333-4.138667 15.274667-6.485334l-7.808 3.413334z m205.397333-298.538667c43.52 1.450667 74.752 44.373333 60.714667 86.741333a436.992 436.992 0 0 1-253.312 267.989334l-2.432 0.981333-5.802667 2.218667c-48.213333 18.048-99.669333 27.392-152.362666 27.392C280.576 938.666667 85.333333 743.424 85.333333 502.613333a433.962667 433.962667 0 0 1 38.314667-178.944c49.92-110.933333 144.64-196.565333 260.266667-234.965333 44.202667-14.677333 89.045333 20.053333 86.698666 66.474667a379.178667 379.178667 0 0 0 398.250667 398.208h5.717333z" fill="#000000" p-id="2501"></path></svg>