<?xml version="1.0" standalone="no"?><!DOCTYPE svg PUBLIC "-//W3C//DTD SVG 1.1//EN" "http://www.w3.org/Graphics/SVG/1.1/DTD/svg11.dtd"><svg t="1707930594142" class="icon" viewBox="0 0 1024 1024" version="1.1" xmlns="http://www.w3.org/2000/svg" p-id="2524" xmlns:xlink="http://www.w3.org/1999/xlink" width="128" height="128"><path d="M454.656 73.07264l-211.51744 180.40832H137.37984c-55.99232 0-105.75872 46.65344-105.75872 105.75872v264.41728a104.8576 104.8576 0 0 0 105.75872 105.73824h93.32736L454.656 906.71104c52.87936 40.448 102.64576 15.54432 102.64576-49.78688V122.85952c0-68.44416-52.87936-93.32736-102.64576-49.78688z m31.10912 790.07744l-230.17472-180.4288a23.87968 23.87968 0 0 0-15.5648-6.22592H137.37984c-27.99616 0-52.87936-24.8832-52.87936-52.85888V359.26016c0-27.99616 24.8832-52.87936 52.87936-52.87936h115.0976c6.22592 0 12.43136-3.09248 15.54432-6.22592l217.74336-186.63424c15.54432-12.43136 15.54432-12.43136 15.54432 6.22592v734.1056h3.11296c0 21.77024-3.11296 21.77024-18.65728 9.29792zM957.97248 633.71264c-10.93632 10.91584-26.91072 12.65664-35.69664 3.87072l-288.95232-288.9728c-8.78592-8.78592-7.0656-24.76032 3.85024-35.69664 10.93632-10.93632 26.9312-12.67712 35.71712-3.8912l288.95232 288.95232c8.8064 8.82688 7.08608 24.80128-3.87072 35.7376z" p-id="2525"></path><path d="M637.17376 633.71264c-10.91584-10.9568-12.63616-26.91072-3.85024-35.71712L922.27584 309.0432c8.78592-8.78592 24.76032-7.04512 35.69664 3.87072 10.91584 10.93632 12.65664 26.9312 3.87072 35.71712l-288.95232 288.9728c-8.76544 8.78592-24.7808 7.04512-35.71712-3.8912z" p-id="2526"></path></svg>