<?xml version="1.0" standalone="no"?><!DOCTYPE svg PUBLIC "-//W3C//DTD SVG 1.1//EN" "http://www.w3.org/Graphics/SVG/1.1/DTD/svg11.dtd"><svg t="1705811826402" class="icon" viewBox="0 0 1024 1024" version="1.1" xmlns="http://www.w3.org/2000/svg" p-id="3185" xmlns:xlink="http://www.w3.org/1999/xlink" width="128" height="128"><path d="M930.960258 544.226982 350.861046 544.226982c-17.813421 0-32.227279-14.414291-32.227279-32.226982 0-17.797341 14.413858-32.226982 32.227279-32.226982L930.960258 479.773018c17.813421 0 32.228303 14.429641 32.228303 32.226982C963.188561 529.812691 948.773679 544.226982 930.960258 544.226982zM930.960258 286.416242 350.861046 286.416242c-17.813421 0-32.227279-14.429641-32.227279-32.226982s14.413858-32.226982 32.227279-32.226982L930.960258 221.962278c17.813421 0 32.228303 14.429641 32.228303 32.226982S948.773679 286.416242 930.960258 286.416242zM125.267021 834.264705c-35.595118 0-64.455582-28.859281-64.455582-64.451918 0-35.593659 28.860464-64.452941 64.455582-64.452941s64.455582 28.859281 64.455582 64.452941C189.722603 805.405423 160.862139 834.264705 125.267021 834.264705zM125.267021 576.452941c-35.595118 0-64.455582-28.859281-64.455582-64.452941 0-35.593659 28.860464-64.452941 64.455582-64.452941s64.455582 28.859281 64.455582 64.452941C189.722603 547.593659 160.862139 576.452941 125.267021 576.452941zM125.267021 318.642201c-35.595118 0-64.455582-28.859281-64.455582-64.452941s28.860464-64.452941 64.455582-64.452941 64.455582 28.859281 64.455582 64.452941S160.862139 318.642201 125.267021 318.642201zM350.861046 737.584782 930.960258 737.584782c17.813421 0 32.228303 14.414291 32.228303 32.226982 0 17.811668-14.414882 32.225959-32.228303 32.225959L350.861046 802.037722c-17.813421 0-32.227279-14.414291-32.227279-32.225959C318.633766 751.999073 333.047625 737.584782 350.861046 737.584782z" p-id="3186"></path></svg>