<?xml version="1.0" standalone="no"?><!DOCTYPE svg PUBLIC "-//W3C//DTD SVG 1.1//EN" "http://www.w3.org/Graphics/SVG/1.1/DTD/svg11.dtd"><svg t="1714467974732" class="icon" viewBox="0 0 1193 1024" version="1.1" xmlns="http://www.w3.org/2000/svg" p-id="4105" xmlns:xlink="http://www.w3.org/1999/xlink" width="149.125" height="128"><path d="M1097.791574 928.638581H95.929047v-794.678492l403.015521 332.062084a142.474501 142.474501 0 0 0 101.037694 44.842572 142.474501 142.474501 0 0 0 101.605321-42.572062l397.339246-330.926829v794.678492zM995.050998 95.929047l-356.470067 298.004434a47.68071 47.68071 0 0 1-34.625277 14.758315A47.68071 47.68071 0 0 1 567.627494 397.339246L199.237251 95.929047zM1097.791574 0H95.929047A95.929047 95.929047 0 0 0 0 95.929047v832.709534A95.929047 95.929047 0 0 0 95.929047 1021.72949h1001.862527A95.929047 95.929047 0 0 0 1192.017738 928.638581V95.929047A95.929047 95.929047 0 0 0 1097.791574 0z" p-id="4106"></path></svg>