<?xml version="1.0" standalone="no"?><!DOCTYPE svg PUBLIC "-//W3C//DTD SVG 1.1//EN" "http://www.w3.org/Graphics/SVG/1.1/DTD/svg11.dtd"><svg t="1707918752955" class="icon" viewBox="0 0 1024 1024" version="1.1" xmlns="http://www.w3.org/2000/svg" p-id="2222" xmlns:xlink="http://www.w3.org/1999/xlink" width="128" height="128"><path d="M192 863.872c0 17.664 14.336 32 32 32S256 881.536 256.00000001 863.872l-1e-8-282.88L809.408 889.40799999c18.176 10.11200001 39.936 10.048 58.112 1e-8C885.76 879.23199999 896.576 861.12 896.576 840.832l0-656.64c0-20.224-10.816-38.464-29.056-48.576C858.432 130.55999999 848.51200001 128 838.528 128s-19.968 2.56-29.056 7.616L256 444.032l0-284.096c0-17.664-14.336-32-32-32s-32 14.336-32 32L192 863.872zM832.192 194.752L835.328 832l-573.312-319.488L832.192 194.752z" p-id="2223"></path></svg>