<?xml version="1.0" standalone="no"?><!DOCTYPE svg PUBLIC "-//W3C//DTD SVG 1.1//EN" "http://www.w3.org/Graphics/SVG/1.1/DTD/svg11.dtd"><svg t="1712409934167" class="icon" viewBox="0 0 1024 1024" version="1.1" xmlns="http://www.w3.org/2000/svg" p-id="3854" xmlns:xlink="http://www.w3.org/1999/xlink" width="128" height="128"><path d="M1021.445379 476.147754A511.328763 511.328763 0 0 0 0.00081 512.266918c0 9.568883 0 19.676858 1.078184 30.99779v398.928081a80.8638 80.8638 0 0 0 80.8638 80.8638h398.388989c11.455705 0 21.56368 0.943411 30.99779 0.943411a513.080812 513.080812 0 0 0 373.860303-161.7276 507.824665 507.824665 0 0 0 136.255503-386.124646zM835.593411 815.10185a444.750901 444.750901 0 0 1-324.263838 141.107331c-8.490699 0-17.250944 0-27.898011-0.943411H81.538475a13.4773 13.4773 0 0 1-13.4773-13.4773V542.321297v-2.156368C67.38731 529.787408 67.38731 520.622844 67.38731 512.266918a445.694312 445.694312 0 0 1 141.107331-324.533385A439.494754 439.494754 0 0 1 511.060027 68.324655c10.512294 0 21.159361 0 31.806428 1.078184A443.942263 443.942263 0 0 1 835.593411 815.10185z" p-id="3855"></path><path d="M741.252311 359.703882a146.228705 146.228705 0 0 0-104.044756-43.12736 145.959159 145.959159 0 0 0-103.909983 42.992587l-20.485496 20.620269-20.485496-20.485496a146.093932 146.093932 0 0 0-103.909983-43.12736 144.611429 144.611429 0 0 0-104.17953 42.992587 147.576435 147.576435 0 0 0 0 208.224285l204.854961 204.585414a33.558477 33.558477 0 0 0 47.709642 0L741.252311 567.658621a146.90257 146.90257 0 0 0 0-207.954739z m-47.440096 160.245097L512.946849 700.949118 332.081482 520.083752a79.785616 79.785616 0 0 1 56.065569-136.12073 80.8638 80.8638 0 0 1 56.60466 23.450502l44.340317 44.205544a33.69325 33.69325 0 0 0 47.709642 0l44.340317-44.340317a78.707432 78.707432 0 0 1 56.200341-23.315729 78.842205 78.842205 0 0 1 56.335114 23.450502 79.246524 79.246524 0 0 1 0 112.535455z" p-id="3856"></path></svg>