<?xml version="1.0" standalone="no"?><!DOCTYPE svg PUBLIC "-//W3C//DTD SVG 1.1//EN" "http://www.w3.org/Graphics/SVG/1.1/DTD/svg11.dtd"><svg t="1689997586424" class="icon" viewBox="0 0 1024 1024" version="1.1" xmlns="http://www.w3.org/2000/svg" p-id="2144" xmlns:xlink="http://www.w3.org/1999/xlink" width="64" height="64"><path d="M835 959.2c-15.2 0-30.9-4.5-46-13.4L513.5 783.5 235 946c-28.3 16.2-58.7 17.3-83.4 3-25.7-14.9-40.4-43.6-40.4-78.8V174.5c0-60.5 47.2-109.7 105.2-109.7h592.1c26.9 0 52.5 10.9 72.1 30.7 20.7 21 32.5 50.2 32.2 80.2v694.6c0 34.9-15.3 64.6-41 79.2-11.4 6.4-23.9 9.7-36.8 9.7zM513.7 714l305.9 180.2c8.8 5.2 17 6.4 22.4 3.2 6.7-3.8 10.8-14 10.8-27.1V175.2c0.1-14.1-5.3-27.8-14.9-37.5-8.2-8.3-18.7-12.9-29.4-12.9H216.4c-24.9 0-45.2 22.3-45.2 49.7v695.7c0 13 3.9 23.1 10.5 26.9 5.7 3.3 14.2 2.1 23.4-3.1l308.6-180z" p-id="2145"></path><path d="M314.2 283.2h395.6c13.7 0 24.7 11.1 24.7 24.7 0 13.7-11.1 24.7-24.7 24.7H314.2c-13.7 0-24.7-11.1-24.7-24.7s11-24.7 24.7-24.7z" p-id="2146"></path></svg>