<?xml version="1.0" standalone="no"?><!DOCTYPE svg PUBLIC "-//W3C//DTD SVG 1.1//EN" "http://www.w3.org/Graphics/SVG/1.1/DTD/svg11.dtd"><svg t="1703255125163" class="icon" viewBox="0 0 3413 1024" version="1.1" xmlns="http://www.w3.org/2000/svg" p-id="1921" xmlns:xlink="http://www.w3.org/1999/xlink" width="426.625" height="128"><path d="M204.8 0h3003.733333a204.8 204.8 0 0 1 204.8 204.8v614.4a204.8 204.8 0 0 1-204.8 204.8H204.8a204.8 204.8 0 0 1-204.8-204.8V204.8a204.8 204.8 0 0 1 204.8-204.8z m155.648 702.0544c-23.7568 24.029867-27.170133 72.4992 0 96.529067 23.688533 27.511467 61.098667 27.511467 91.682133 0l262.144-262.417067 262.144 262.417067c30.651733 27.511467 68.061867 27.511467 91.7504 0 27.170133-27.511467 23.688533-72.4992 0-96.529067l-353.8944-362.359467s3.413333 3.413333-353.826133 362.359467zM1091.857067 204.8H343.2448v134.485333H1092.266667V204.8h-0.4096z m268.219733 140.4928v48.810667h338.1248c-3.549867 16.861867-6.212267 33.723733-9.762133 50.5856h-215.6544v391.3728h-128.682667v51.473066h794.282667v-51.473066h-128.682667V444.689067h-257.365333c3.549867-15.9744 6.212267-32.836267 9.762133-50.5856h360.311467v-48.810667h-353.211734l5.3248-51.473067h287.5392V127.863467h-642.525866v165.956266h291.089066l-5.3248 51.473067h-345.224533z m174.830933 490.769067v-58.5728h411.784534v58.5728h-411.784534z m0-98.5088v-55.9104h411.784534v55.9104h-411.784534z m0-96.733867v-55.9104h411.784534v55.9104h-411.784534z m0-95.8464v-55.9104h411.784534v55.9104h-411.784534z m466.807467-296.413867h-132.232533V174.8992h132.232533v73.659733z m-190.805333 0h-140.219734V174.8992h140.219734v73.659733z m-197.905067 0h-132.232533V174.8992h132.232533v73.659733z m960.238933-116.258133v62.122667h188.142934c-2.6624 31.9488-6.212267 63.010133-11.537067 93.184h-150.869333v422.434133h62.122666V347.067733h268.9024v361.198934h63.010134V287.607467H2814.634667c5.3248-30.173867 8.874667-61.2352 11.537066-93.184h196.130134v-62.122667h-449.058134z m294.638934 581.290667l-43.485867 40.823466c67.447467 55.022933 119.808 106.496 158.856533 154.4192l46.148267-47.035733c-43.485867-49.698133-97.621333-98.5088-161.518933-148.206933z m-107.383467-314.1632v157.969066c-2.6624 75.434667-21.2992 136.669867-56.797867 183.7056-37.2736 45.2608-102.946133 81.646933-197.905066 109.1584l34.6112 54.135467c98.5088-30.173867 169.506133-70.997333 212.992-122.4704 44.373333-55.022933 67.447467-130.4576 70.109866-224.529067V399.428267h-63.010133z m-401.134933 496.981333c50.5856 0 76.322133-26.624 76.322133-78.984533V194.423467h106.496v-62.122667h-308.8384v62.122667h136.669867v607.0272c0 24.849067-11.537067 38.161067-32.836267 38.161066-29.2864 0-60.347733-1.774933-92.296533-3.549866l14.199466 60.347733h100.283734z" fill="#FF8F47" p-id="1922"></path></svg>