<?xml version="1.0" standalone="no"?><!DOCTYPE svg PUBLIC "-//W3C//DTD SVG 1.1//EN" "http://www.w3.org/Graphics/SVG/1.1/DTD/svg11.dtd"><svg t="1689997551964" class="icon" viewBox="0 0 1024 1024" version="1.1" xmlns="http://www.w3.org/2000/svg" p-id="1685" xmlns:xlink="http://www.w3.org/1999/xlink" width="64" height="64"><path d="M121.701806 892.690372l262.866896-73.647347 27.195386-27.238364L226.714512 606.747921l-27.477818 27.438932L121.701806 892.690372 121.701806 892.690372 121.701806 892.690372 121.701806 892.690372 121.701806 892.690372zM257.551844 575.910589l185.080276 185.079252 361.701902-361.757161L619.288538 214.168778 257.551844 575.910589 257.551844 575.910589 257.551844 575.910589 257.551844 575.910589 257.551844 575.910589zM887.824551 205.128891l-74.458829-74.462922c-42.590004-42.591027-68.000743-42.591027-110.573351 0l-52.647057 52.695153 185.052646 185.028087 52.653197-52.665477C930.418648 273.124518 930.418648 247.722988 887.824551 205.128891L887.824551 205.128891 887.824551 205.128891 887.824551 205.128891 887.824551 205.128891 887.824551 205.128891zM381.449665 135.926786c-42.585911-42.595121-68.02121-42.595121-110.612237 0L94.806249 311.930335l-30.833239-30.837332L249.027703 96.03524c42.590004-42.594097 111.620194-42.594097 154.215314 0l101.936647 101.94074-30.842449 30.833239L381.449665 135.926786 381.449665 135.926786 381.449665 135.926786 381.449665 135.926786 381.449665 135.926786 381.449665 135.926786zM171.904185 327.368956l61.706387-61.702294 30.858822 30.842449-61.702294 61.697177-3.663436-3.664459 34.480302 34.528398 92.514043-92.561116 30.867008 30.859845-92.52223 92.514043 9.41851 9.422603-30.850635 30.837332L94.789876 311.930335l30.858822-30.837332L171.904185 327.368956 171.904185 327.368956 171.904185 327.368956 171.904185 327.368956 171.904185 327.368956zM603.735307 759.173472l92.51302 92.51916 46.281069 46.275953 145.166217-145.20101c42.591027-42.599214 42.591027-68.025303 0-110.621447l-97.353258-97.354282 30.833239-30.846542 106.407472 106.411565c42.590004 42.591027 42.590004 111.617124 0 154.220431L773.366729 928.785451l-30.837332 30.842449-30.837332-30.842449L559.0025 776.09691l30.842449-30.838356L603.735307 759.173472 603.735307 759.173472 603.735307 759.173472 603.735307 759.173472 603.735307 759.173472 603.735307 759.173472zM727.112266 697.502901l-92.514043 92.50995-30.858822-30.838356 92.508927-92.560092L727.112266 697.502901 727.112266 697.502901 727.112266 697.502901 727.112266 697.502901 727.112266 697.502901zM742.528374 743.735875l30.842449 30.858822-77.096912 77.097936-30.837332-30.859845L742.528374 743.735875 742.528374 743.735875 742.528374 743.735875 742.528374 743.735875 742.528374 743.735875zM742.528374 743.735875" p-id="1686"></path></svg>