<?xml version="1.0" standalone="no"?><!DOCTYPE svg PUBLIC "-//W3C//DTD SVG 1.1//EN" "http://www.w3.org/Graphics/SVG/1.1/DTD/svg11.dtd"><svg t="1715409177301" class="icon" viewBox="0 0 1024 1024" version="1.1" xmlns="http://www.w3.org/2000/svg" p-id="4377" xmlns:xlink="http://www.w3.org/1999/xlink" width="128" height="128"><path d="M844.241868 961.214704H170.97975c-61.918295 0-112.168207-50.249912-112.168207-112.168207V175.784379c0-61.990545 50.249912-112.276582 112.168207-112.276582H844.241868c61.990545 0 112.276582 50.249912 112.276583 112.276582v673.262118c0 61.918295-50.249912 112.168207-112.276583 112.168207z m56.138291-785.430325c0-31.031398-25.106893-56.138291-56.138291-56.138291H170.97975c-30.959148 0-56.138291 25.106893-56.138291 56.138291v673.262118c0 30.959148 25.179143 56.066041 56.138291 56.066041H844.241868c31.031398 0 56.138291-25.106893 56.138291-56.066041V175.784379zM528.545262 644.723347c-5.888379 5.852254-13.619135 8.453256-21.349891 8.019756-7.658506 0.4335-15.497636-2.131377-21.34989-8.019756L235.029422 393.040288c-11.018133-11.126508-11.018133-29.080646 0-40.134905 11.018133-11.018133 28.900021-11.018133 39.845904 0l232.28392 233.078671 232.283921-233.078671c11.018133-11.018133 28.900021-11.018133 39.954279 0 11.018133 11.018133 11.018133 29.008396 0 40.134905l-250.852184 251.683059z" p-id="4378"></path></svg>