<?xml version="1.0" standalone="no"?><!DOCTYPE svg PUBLIC "-//W3C//DTD SVG 1.1//EN" "http://www.w3.org/Graphics/SVG/1.1/DTD/svg11.dtd"><svg t="1714620078278" class="icon" viewBox="0 0 1024 1024" version="1.1" xmlns="http://www.w3.org/2000/svg" p-id="4034" xmlns:xlink="http://www.w3.org/1999/xlink" width="128" height="128"><path d="M960.128 242.496h-149.12V64c0-35.328-28.704-64-64-64H64C28.672 0 0 28.672 0 64v683.008c0 35.296 28.672 64 64 64h178.496V960c0 35.328 28.672 64 64 64h653.632c35.296 0 64-28.672 64-64V306.368a64.096 64.096 0 0 0-64-63.872zM82.24 82.24h646.432v646.432h-646.4v-646.4z m859.552 859.552H324.8v-130.72h422.24c35.296 0 64-28.672 64-64V324.8h130.816v617.056zM630.112 253.696a41.152 41.152 0 0 0-58.176 1.824l-229.44 243.968-104.48-103.072a41.152 41.152 0 0 0-57.792 58.496l134.496 132.672c7.648 7.68 18.048 11.904 28.896 11.904h0.8c11.072-0.256 21.6-4.928 29.248-12.928l258.368-274.72a41.28 41.28 0 0 0-1.92-58.144z" p-id="4035"></path></svg>