<?xml version="1.0" standalone="no"?><!DOCTYPE svg PUBLIC "-//W3C//DTD SVG 1.1//EN" "http://www.w3.org/Graphics/SVG/1.1/DTD/svg11.dtd"><svg t="1702967791348" class="icon" viewBox="0 0 1024 1024" version="1.1" xmlns="http://www.w3.org/2000/svg" p-id="3034" xmlns:xlink="http://www.w3.org/1999/xlink" width="128" height="128"><path d="M627.29 97.51m32 0l236 0q32 0 32 32l0 0q0 32-32 32l-236 0q-32 0-32-32l0 0q0-32 32-32Z" p-id="3035"></path><path d="M575.519937 403.514886m22.627417-22.627417l233.514943-233.514943q22.627417-22.627417 45.254834 0l0 0q22.627417 22.627417 0 45.254834l-233.514943 233.514943q-22.627417 22.627417-45.254834 0l0 0q-22.627417-22.627417 0-45.254834Z" p-id="3036"></path><path d="M862.78 97.99m32 0l0 0q32 0 32 32l0 236q0 32-32 32l0 0q-32 0-32-32l0-236q0-32 32-32Z" p-id="3037"></path><path d="M627.29 863.52m32 0l236 0q32 0 32 32l0 0q0 32-32 32l-236 0q-32 0-32-32l0 0q0-32 32-32Z" p-id="3038"></path><path d="M575.515745 621.515821m22.627417-22.627417l0 0q22.627417-22.627417 45.254834 0l233.514943 233.514944q22.627417 22.627417 0 45.254834l0 0q-22.627417 22.627417-45.254834 0l-233.514943-233.514944q-22.627417-22.627417 0-45.254834Z" p-id="3039"></path><path d="M862.78 627.03m32 0l0 0q32 0 32 32l0 236q0 32-32 32l0 0q-32 0-32-32l0-236q0-32 32-32Z" p-id="3040"></path><path d="M97.77 863.52m32 0l236 0q32 0 32 32l0 0q0 32-32 32l-236 0q-32 0-32-32l0 0q0-32 32-32Z" p-id="3041"></path><path d="M125.51828 855.028886m22.627417-22.627417l233.514943-233.514943q22.627417-22.627417 45.254834 0l0 0q22.627417 22.627417 0 45.254834l-233.514943 233.514943q-22.627417 22.627417-45.254834 0l0 0q-22.627417-22.627417 0-45.254834Z" p-id="3042"></path><path d="M98.29 627.03m32 0l0 0q32 0 32 32l0 236q0 32-32 32l0 0q-32 0-32-32l0-236q0-32 32-32Z" p-id="3043"></path><path d="M97.77 97.51m32 0l236 0q32 0 32 32l0 0q0 32-32 32l-236 0q-32 0-32-32l0 0q0-32 32-32Z" p-id="3044"></path><path d="M125.528816 170.001235m22.627417-22.627417l0 0q22.627417-22.627417 45.254834 0l233.514943 233.514944q22.627417 22.627417 0 45.254834l0 0q-22.627417 22.627417-45.254834 0l-233.514943-233.514944q-22.627417-22.627417 0-45.254834Z" p-id="3045"></path><path d="M98.29 97.99m32 0l0 0q32 0 32 32l0 236q0 32-32 32l0 0q-32 0-32-32l0-236q0-32 32-32Z" p-id="3046"></path></svg>