<?xml version="1.0" standalone="no"?><!DOCTYPE svg PUBLIC "-//W3C//DTD SVG 1.1//EN" "http://www.w3.org/Graphics/SVG/1.1/DTD/svg11.dtd"><svg t="1690879975770" class="icon" viewBox="0 0 1024 1024" version="1.1" xmlns="http://www.w3.org/2000/svg" p-id="2180" xmlns:xlink="http://www.w3.org/1999/xlink" width="64" height="64"><path d="M645.652301 1023.946557 84.480268 1023.946557C38.528902 1023.946557 1.11883 986.622297 1.11883 940.776699L1.11883 83.204782C1.11883 37.32426 38.528902 0 84.480268 0l724.160089 0c45.953362 0 83.361438 37.322264 83.361438 83.204782l0 666.246919c0 5.879125-2.180225 11.532743-6.087668 15.955058l-222.300163 250.500404C659.068919 1021.007992 652.549197 1023.946557 645.652301 1023.946557L645.652301 1023.946557zM84.480268 48.023828c-19.485327 0-35.352578 15.784432-35.352578 35.162993l0 857.571918c0 19.414482 15.869246 35.162993 35.352578 35.162993l550.40162 0 209.076123-235.613008L843.958012 83.204782c0-19.378561-15.834323-35.162993-35.317654-35.162993L84.480268 48.041788 84.480268 48.023828 84.480268 48.023828zM683.565272 250.28288 223.097696 250.28288c-20.024147 0-36.260589-16.240433-36.260589-36.28753 0-20.024147 16.238438-36.28753 36.260589-36.28753l460.467576 0c20.075036 0 36.260589 16.265379 36.260589 36.28753C719.799918 234.042447 703.615362 250.28288 683.565272 250.28288L683.565272 250.28288zM683.565272 447.275467 223.097696 447.275467c-20.024147 0-36.260589-16.291322-36.260589-36.260589 0-20.049092 16.238438-36.313473 36.260589-36.313473l460.467576 0c20.075036 0 36.260589 16.265379 36.260589 36.313473C719.799918 430.98614 703.615362 447.275467 683.565272 447.275467L683.565272 447.275467zM469.944102 647.060937 223.097696 647.060937c-20.024147 0-36.260589-16.291322-36.260589-36.313473 0-19.998204 16.238438-36.262585 36.260589-36.262585l246.846406 0c20.025145 0 36.260589 16.265379 36.260589 36.262585C506.206687 630.769615 489.96825 647.060937 469.944102 647.060937L469.944102 647.060937zM617.455053 1021.353236c-13.225037 0-24.012413-10.769415-24.012413-24.012413L593.442641 774.709386c0-45.863559 35.283729-83.186821 78.605853-83.186821l193.293687 0c13.259961 0 24.031371 10.735489 24.031371 23.993454 0 13.276924-10.771411 24.014408-24.031371 24.014408l-193.276724 0c-16.838125 0-30.565063 15.800397-30.565063 35.179956l0 222.647402C641.504385 1010.582824 630.733973 1021.353236 617.455053 1021.353236L617.455053 1021.353236z" p-id="2181"></path></svg>