<?xml version="1.0" standalone="no"?><!DOCTYPE svg PUBLIC "-//W3C//DTD SVG 1.1//EN" "http://www.w3.org/Graphics/SVG/1.1/DTD/svg11.dtd"><svg t="1690604439953" class="icon" viewBox="0 0 1024 1024" version="1.1" xmlns="http://www.w3.org/2000/svg" p-id="17136" xmlns:xlink="http://www.w3.org/1999/xlink" width="64" height="64"><path d="M794.3 373.5v305.9c0 163.5-127 297.3-282.3 297.3-77.6 0-148.2-33.4-199.4-87.4-51.2-53.9-82.9-128.1-82.9-209.9V383" fill="#FFF3DE" p-id="17137"></path><path d="M299.8 749.4V453.1l327.8-8.4v-71.3L229.7 383v296.3c0 81.8 31.8 156 82.9 209.9 13.2 13.9 27.6 26.4 43.2 37.3-35.1-49.5-56-110.8-56-177.1z" fill="#FFF9F3" p-id="17138"></path><path d="M737.4 374.4v248c0 163.5-127 297.3-282.3 297.3-60.9 0-117.4-20.6-163.7-55.6 6.6 8.7 13.7 17.2 21.2 25.1 51.2 54 121.7 87.4 199.4 87.4 155.3 0 282.3-133.8 282.3-297.3V373.5l-56.9 0.9z" fill="#F2DDBD" p-id="17139"></path><path d="M817.8 423.8L936 525.1c28.2 24.2 18.1 70.4-17.9 79.9-49 12.9-110.2 12.1-123.8-28.3" fill="#FFDEDE" p-id="17140"></path><path d="M936 525.1l-22-18.9c12.5 24.8 0.5 57.7-29.1 65.5-30 7.9-64.6 10.6-90.1 2.2l-0.4 2.8c13.7 40.4 74.9 41.3 123.8 28.3 35.8-9.5 46-55.8 17.8-79.9z" fill="#EACECE" p-id="17141"></path><path d="M206.2 423.8L88 525.1c-28.2 24.1-18 70.4 17.9 79.9 49 12.9 110.2 12.1 123.8-28.3" fill="#FFDEDE" p-id="17142"></path><path d="M642.8 582.6m-33.9 0a33.9 33.9 0 1 0 67.8 0 33.9 33.9 0 1 0-67.8 0Z" fill="#383F51" p-id="17143"></path><path d="M381.2 582.6m-33.9 0a33.9 33.9 0 1 0 67.8 0 33.9 33.9 0 1 0-67.8 0Z" fill="#383F51" p-id="17144"></path><path d="M513 833c-8.2 0-14.9-6.7-14.9-14.9v-76.8c0-8.2 6.7-14.9 14.9-14.9s14.9 6.7 14.9 14.9v76.8c0 8.2-6.6 14.9-14.9 14.9z" fill="#383F51" p-id="17145"></path><path d="M513 850.1c-45.7 0-87.5-26.8-106.6-68.4-3.4-7.5-0.2-16.3 7.3-19.7 7.5-3.4 16.3-0.2 19.7 7.3 14.2 31 45.4 51 79.5 51s65.3-20 79.5-51c3.4-7.5 12.2-10.8 19.7-7.3 7.5 3.4 10.7 12.3 7.3 19.7-18.8 41.5-60.7 68.4-106.4 68.4zM314.4 371.2h-0.6v-59.5zM721.5 311.7h12.1v59.5h-12.1z" fill="#383F51" p-id="17146"></path><path d="M842.5 94.7c-58.7 0-109.2 34.5-132.8 84.2-27-89.5-110-154.8-208.3-154.8-93.4 0-172.8 58.9-203.7 141.6-25.8-42.5-72.3-71-125.7-71-81.2 0-147 65.8-147 147s65.8 147 147 147c53.3 0 99.9-28.5 125.7-71 30.9 82.6 110.3 141.6 203.7 141.6 98.3 0 181.4-65.3 208.3-154.8 23.6 49.7 74.1 84.2 132.8 84.2 81.2 0 147-65.8 147-147s-65.8-147-147-147z" fill="#FFFFE9" p-id="17147"></path><path d="M738.9 221.4c23.6-49.7 116.5-55.1 175.2-55.1 22.1 0 42.9 5 61.7 13.7-23.3-50.3-74.2-85.3-133.3-85.3-49.2 0-92.6 24.3-119.3 61.5 26.8 25.6 4.7 28.8 15.7 65.2zM96.6 313.3c0-81.2 65.8-147 147-147 53.3 0 45.3 2.2 71.1 44.7C345.6 128.4 479.6 95.7 573 95.7c41.7 0 80.6 11.8 113.7 32.2C648.4 65.7 579.8 24.1 501.4 24.1 408 24.1 328.6 83 297.7 165.7c-25.8-42.5-72.3-71-125.7-71-81.2 0-147 65.8-147 147 0 59.1 35 110 85.3 133.3-8.7-18.8-13.7-39.6-13.7-61.7zM358.2 405.2c9.3 8.2 19.3 15.6 29.9 22.2-7.4-12-13.8-24.6-18.8-38-3.4 5.5-7.1 10.7-11.1 15.8z" fill="#FFFFF3" p-id="17148"></path><path d="M506.1 512.3c-86 0-165.4-45.5-209.9-117-32.1 29.6-74.2 46.5-119.4 46.5C79.3 441.8 0 362.5 0 265S79.3 88.2 176.8 88.2c45.2 0 87.3 16.8 119.4 46.5 44.5-71.5 123.9-117 209.9-117 89.2 0 171 49.1 214.4 124.3 32.8-33.7 78.4-53.8 126.7-53.8 97.5 0 176.8 79.3 176.8 176.8s-79.3 176.8-176.8 176.8c-48.2 0-93.8-20.1-126.7-53.8-43.4 75.2-125.2 124.3-214.4 124.3z m-203.7-201c0.9 0 1.9 0 2.8 0.1 11.3 1.1 21.1 8.5 25.1 19.2 27.3 73.1 98 122.2 175.8 122.2 82.2 0 156.1-55 179.8-133.6 3.5-11.8 14-20.2 26.2-21.1 12.4-0.9 23.8 5.8 29.1 16.9 19.4 40.8 60.9 67.2 105.9 67.2 64.7 0 117.3-52.6 117.3-117.3s-52.6-117.3-117.3-117.3c-45 0-86.6 26.4-105.9 67.2-5.3 11.1-16.9 17.8-29.1 16.9-12.3-0.9-22.7-9.3-26.2-21.1C662.2 131.9 588.3 77 506.1 77c-77.8 0-148.5 49.1-175.8 122.2-4 10.7-13.7 18.1-25.1 19.2-11.4 1.1-22.3-4.4-28.2-14.2-21.5-35.5-59-56.7-100.2-56.7-64.7 0-117.3 52.6-117.3 117.3s52.6 117.3 117.3 117.3c41.2 0 78.7-21.2 100.2-56.7 5.4-8.7 15.1-14.1 25.4-14.1z" fill="#383F51" p-id="17149"></path><path d="M512 1006.4c-83.2 0-161.5-33-220.5-92.8-59-59.7-91.5-138.7-91.5-222.6V406.1h59.5v284.8c0 68.1 26.4 132.3 74.3 180.8 47.8 48.5 111.1 75.1 178.2 75.1 139.3 0 252.6-114.8 252.6-256V397H824v293.9c0 173.9-139.9 315.5-312 315.5z" fill="#383F51" p-id="17150"></path><path d="M864.2 627.3c-37.9 0-72.5-12-84-45.9l28.2-9.5c10 29.5 61.9 30.4 105.9 18.7 11.3-3 19.6-11.6 22.2-23.1 2.7-11.7-1.1-23.4-10.2-31.2L808.1 435.1l19.4-22.6 118.2 101.3c17.4 14.9 25 38 19.9 60.4-5.1 22.4-21.4 39.3-43.6 45.2-18.4 4.8-38.5 7.9-57.8 7.9z" fill="#383F51" p-id="17151"></path><path d="M159.8 627.3c-19.2 0-39.3-3.1-57.7-7.9-22.2-5.9-38.5-22.8-43.6-45.2-5.1-22.4 2.5-45.5 19.9-60.4l118.2-101.3 19.4 22.6L97.7 536.3c-9.1 7.8-12.9 19.5-10.2 31.2 2.6 11.5 10.9 20.1 22.2 23.1 44 11.6 96 10.8 105.9-18.7l28.2 9.5c-11.5 33.9-46.1 45.9-84 45.9z" fill="#383F51" p-id="17152"></path></svg>