<?xml version="1.0" standalone="no"?><!DOCTYPE svg PUBLIC "-//W3C//DTD SVG 1.1//EN" "http://www.w3.org/Graphics/SVG/1.1/DTD/svg11.dtd"><svg t="1691399940054" class="icon" viewBox="0 0 1024 1024" version="1.1" xmlns="http://www.w3.org/2000/svg" p-id="2795" xmlns:xlink="http://www.w3.org/1999/xlink" width="64" height="64"><path d="M640 822.2c-6.5 0-13-2.5-17.9-7.5L316.3 501.2l-0.2-0.2c-1.4-1.5-3-1.8-4.1-1.8-1.1-0.1-2.7 0.3-4.1 1.8L173.6 642c-9.5 10-25.3 10.4-35.3 0.9-10-9.5-10.4-25.3-0.9-35.3l134.2-140.9c10.4-11 25.1-17.3 40.4-17.3h0.1c15.2 0 29.9 6.4 40.3 17.4l305.5 313.1c9.6 9.9 9.4 25.7-0.4 35.4-4.9 4.6-11.2 6.9-17.5 6.9zM869.6 748.4c-6.6 0-13.2-2.6-18.1-7.7L709.1 591.5c-1.4-1.5-3-1.8-4.1-1.8-1.1 0-2.7 0.3-4.1 1.7l-88.4 96c-9.4 10.2-25.2 10.8-35.3 1.5-10.2-9.4-10.8-25.2-1.5-35.3l88.6-96.3c10.5-11.1 25.2-17.5 40.5-17.6h0.1c15.2 0 29.9 6.3 40.4 17.4l142.3 149c9.5 10 9.2 25.8-0.8 35.3-4.8 4.7-11 7-17.2 7z" p-id="2796"></path><path d="M878.2 883.7H146c-41.4 0-75-33.6-75-75V217.8c0-41.4 33.6-75 75-75h732.1c41.4 0 75 33.6 75 75v590.9c0.1 41.4-33.6 75-74.9 75zM146 192.8c-13.8 0-25 11.2-25 25v590.9c0 13.8 11.2 25 25 25h732.1c13.8 0 25-11.2 25-25V217.8c0-13.8-11.2-25-25-25H146z" p-id="2797"></path></svg>