<?xml version="1.0" standalone="no"?><!DOCTYPE svg PUBLIC "-//W3C//DTD SVG 1.1//EN" "http://www.w3.org/Graphics/SVG/1.1/DTD/svg11.dtd"><svg t="1690562251072" class="icon" viewBox="0 0 1024 1024" version="1.1" xmlns="http://www.w3.org/2000/svg" p-id="1970" xmlns:xlink="http://www.w3.org/1999/xlink" width="64" height="64"><path d="M911.71 424.692s0 0.298 0.298 0.501c10.476 40.259-31.927 85.216-101.27 126.776-6.884 132.174-97.38 250.857-231.571 286.823-26.641 7.392-53.984 10.789-81.012 10.789a312.517 312.517 0 0 1-176.908-54.954 316.817 316.817 0 0 1-85.903-88.211c-81.014-1.195-140.075-18.779-151.051-59.136v-0.201a47.367 47.367 0 0 1-1.702-12.993c0-11.185 3.495-22.176 9.28-32.464 5.787-10.29 13.665-20.28 23.648-30.076 17.561-17.278 40.901-34.66 69.738-51.744 7.086-131.876 97.38-250.357 231.578-286.323a313.226 313.226 0 0 1 216.212 20.085 313.677 313.677 0 0 1 167.118 201.6c5.384 19.48 8.482 39.259 9.976 58.837 50.191-32.764 74.629-62.34 69.738-80.416v-0.202c-3.091-10.491-17.554-19.787-41.201-26.178a107.926 107.926 0 0 0-11.177-2.688 16.726 16.726 0 0 1-12.969-19.585c1.993-9.095 10.579-14.985 19.562-12.992 4.585 1 8.975 2.001 13.163 3.196 36.617 9.691 58.367 26.379 64.453 49.556zM116.019 638.485c5.084 18.084 41.007 31.27 100.471 34.466a291.797 291.797 0 0 1-20.951-55.947c-5.392-19.78-8.482-39.559-9.984-59.137a413.211 413.211 0 0 0-24.64 17.375c-20.055 15.591-33.928 30.576-40.513 42.261-3.584 6.892-5.085 12.193-5.085 16.382 0 1.404 0.202 2.896 0.702 4.6 0-0.201 0-0.201 0 0z m454.368 168.134c112.94-30.367 191.266-125.873 205.131-235.469-69.044 36.161-156.345 68.633-243.741 92.109-87.107 23.475-179.095 38.864-256.927 42.261a282.692 282.692 0 0 0 64.66 61.54c67.648 46.353 151.857 60.839 230.869 39.559h0.008z m-46.891-175.228c108.05-29.075 194.253-64.534 254.613-98.209-0.194-23.176-3.084-46.651-9.475-69.828-21.251-79.124-75.622-144.861-149.557-180.327a279.592 279.592 0 0 0-121.034-27.582c-24.342 0-48.481 3.099-72.427 9.491-149.258 40.066-238.164 194.214-198.15 343.466a284.537 284.537 0 0 0 26.633 65.243c69.045-1.001 161.34-13.186 269.398-42.261l-0.001 0.007z m-77.93-302.279a16.502 16.502 0 0 1 19.922 11.916c2.18 8.908-3.166 17.92-11.894 20.123-57.688 14.717-104.183 57.567-124.104 114.643a16.603 16.603 0 0 1-15.568 11.013c-1.68 0-3.657-0.299-5.346-1.008-8.43-2.897-12.79-12.41-9.916-21.019 23.483-67.386 78.512-118.241 146.906-135.668zM319.575 541.866c0.202 6.414 0.896 13.022 1.882 19.428 1.291 9.013-4.854 17.622-13.776 18.816-0.695 0.209-1.688 0.209-2.383 0.209a16.464 16.464 0 0 1-16.255-14.224 180.776 180.776 0 0 1-2.179-23.027c-0.195-9.005 6.839-16.919 15.761-17.121 8.923-0.5 16.756 6.914 16.95 15.919z m488.691-351.514c35.197 0 63.541 28.635 63.541 64.176 0 35.542-28.344 64.175-63.541 64.175-35.183 0-63.541-28.634-63.541-64.175s28.656-64.176 63.541-64.176z m0 99.112c19.137 0 34.899-15.717 34.697-35.041 0-19.323-15.56-35.041-34.689-35.041-19.137 0-34.698 15.718-34.698 35.041 0 19.324 15.561 35.042 34.698 35.042l-0.008-0.001zM338.577 878.627c3.495 1.195 5.6 4.181 5.6 7.765 0 3.576-2.203 6.556-5.6 7.751l-14.687 4.876-4.897 14.627c-1.196 3.382-4.197 5.569-7.788 5.569-3.6 0-6.601-2.187-7.796-5.569l-4.897-14.627-14.687-4.876c-3.398-1.195-5.6-4.182-5.6-7.759 0-3.584 2.202-6.57 5.6-7.764l14.687-4.869 4.897-14.627c1.195-3.382 4.196-5.57 7.796-5.57 3.591 0 6.592 2.187 7.788 5.57l4.897 14.627 14.687 4.876z m143.27-773.037c-3.494-1.195-5.593-4.181-5.593-7.758 0-3.584 2.197-6.571 5.6-7.766l14.68-4.867 4.899-14.628a8.062 8.062 0 0 1 7.795-5.57c3.591 0 6.592 2.188 7.787 5.57l4.899 14.628 14.686 4.875c3.397 1.195 5.6 4.182 5.6 7.766 0 3.576-2.203 6.562-5.6 7.75l-14.686 4.876-4.899 14.626c-1.195 3.383-4.196 5.571-7.787 5.571-3.6 0-6.593-2.188-7.796-5.571l-4.898-14.626-14.687-4.876zM97.187 437.289l-6.795-20.893-20.78-6.763c-3.396-1.196-5.59-4.184-5.59-7.767 0-3.577 2.194-6.563 5.6-7.759l20.779-6.763 6.891-20.691c1.195-3.382 4.197-5.57 7.796-5.57 3.591 0 6.593 2.188 7.787 5.57l6.795 20.69 20.683 6.967c3.397 1.194 5.6 4.18 5.6 7.764 0 3.584-2.203 6.564-5.6 7.759l-20.78 6.764-6.795 20.691c-1.194 3.382-4.196 5.569-7.795 5.569s-6.593-2.187-7.795-5.569v0.001zM249.715 169.46c0-9.005 7.244-16.353 16.255-16.249a16.209 16.209 0 0 1 15.024 10.024 16.211 16.211 0 0 1 1.224 6.225 16.194 16.194 0 0 1-4.746 11.502 16.21 16.21 0 0 1-11.502 4.745 16.2 16.2 0 0 1-16.255-16.248v0.001z m232.139 775.29a16.2 16.2 0 0 1 16.248-16.247 16.21 16.21 0 0 1 15.023 10.023 16.206 16.206 0 0 1 1.224 6.224 16.2 16.2 0 0 1-16.255 16.249 16.189 16.189 0 0 1-11.501-4.746 16.194 16.194 0 0 1-4.746-11.502l0.007-0.001z m445.678-380.685a16.208 16.208 0 0 1 4.745-11.502 16.194 16.194 0 0 1 11.502-4.746 16.21 16.21 0 0 1 11.499 4.75 16.223 16.223 0 0 1 3.519 5.279 16.213 16.213 0 0 1 1.221 6.226 16.196 16.196 0 0 1-4.742 11.506 16.204 16.204 0 0 1-11.504 4.748 16.2 16.2 0 0 1-16.248-16.254l0.008-0.007zM630.403 169.459a16.207 16.207 0 0 1 10.023-15.022 16.204 16.204 0 0 1 6.224-1.225 16.214 16.214 0 0 1 11.505 4.748 16.204 16.204 0 0 1 4.743 11.507 16.212 16.212 0 0 1-4.746 11.502 16.21 16.21 0 0 1-11.502 4.745 16.211 16.211 0 0 1-11.502-4.745 16.217 16.217 0 0 1-4.745-11.502v-0.008z m268.203 570.043c3.159 1.329 5.705 4.286 5.705 7.952 0 3.666-2.24 6.72-5.705 7.952l-21.206 6.929-6.921 21.198a8.314 8.314 0 0 1-7.952 5.705c-3.666 0-6.72-2.24-7.952-5.705l-6.93-21.206-21.197-6.921a8.322 8.322 0 0 1-5.705-7.952c0-3.666 2.24-6.72 5.705-7.952l21.205-6.929 6.921-21.198a8.318 8.318 0 0 1 7.953-5.705c3.666 0 6.72 2.24 7.952 5.705l6.929 21.205 21.198 6.921v0.001z" p-id="1971"></path></svg>