<?xml version="1.0" standalone="no"?><!DOCTYPE svg PUBLIC "-//W3C//DTD SVG 1.1//EN" "http://www.w3.org/Graphics/SVG/1.1/DTD/svg11.dtd"><svg t="1690004346345" class="icon" viewBox="0 0 1024 1024" version="1.1" xmlns="http://www.w3.org/2000/svg" p-id="1920" xmlns:xlink="http://www.w3.org/1999/xlink" width="64" height="64"><path d="M977.266 157.013 44.119 157.013c-19.705 0-35.555 16.066-35.555 35.555l0 23.127c0 19.705 16.066 35.555 35.555 35.555l932.939 0c19.705 0 35.555-16.066 35.555-35.555l0-22.919C1012.821 173.071 996.971 157.013 977.266 157.013zM977.266 464.778 44.119 464.778c-19.705 0-35.555 16.066-35.555 35.555l0 23.559c0 19.705 16.066 35.555 35.555 35.555l932.939 0c19.705 0 35.555-16.066 35.555-35.555l0-23.559C1012.821 480.628 996.971 464.778 977.266 464.778zM977.266 772.543 44.119 772.543c-19.705 0-35.555 16.066-35.555 35.555l0 23.559c0 19.705 16.066 35.555 35.555 35.555l932.939 0c19.705 0 35.555-16.066 35.555-35.555l0-23.559C1012.821 788.393 996.971 772.543 977.266 772.543z" p-id="1921"></path></svg>