<?xml version="1.0" standalone="no"?><!DOCTYPE svg PUBLIC "-//W3C//DTD SVG 1.1//EN" "http://www.w3.org/Graphics/SVG/1.1/DTD/svg11.dtd"><svg t="1701960061681" class="icon" viewBox="0 0 1024 1024" version="1.1" xmlns="http://www.w3.org/2000/svg" p-id="2816" xmlns:xlink="http://www.w3.org/1999/xlink" width="64" height="64"><path d="M523.093333 20.622222A491.633778 491.633778 0 0 0 107.776 246.556444a9.130667 9.130667 0 0 0 7.68 14.08h80.327111a18.005333 18.005333 0 0 0 14.051556-6.627555c7.992889-9.728 16.583111-19.086222 25.6-28.017778A404.366222 404.366222 0 0 1 521.841778 107.52c54.727111 0 107.747556 10.609778 157.582222 31.772444a404.394667 404.394667 0 0 1 128.796444 86.755556 403.768889 403.768889 0 0 1 86.869334 128.568889 400.611556 400.611556 0 0 1 31.772444 157.468444 402.631111 402.631111 0 0 1-118.613333 286.065778 404.394667 404.394667 0 0 1-128.824889 86.755556 403.2 403.2 0 0 1-157.582222 31.744 404.394667 404.394667 0 0 1-286.407111-118.528 452.494222 452.494222 0 0 1-25.6-27.989334 18.176 18.176 0 0 0-14.051556-6.627555H115.427556a9.102222 9.102222 0 0 0-7.651556 14.051555c87.552 135.907556 240.213333 225.962667 414.065778 225.962667 269.937778 0 489.130667-217.258667 491.889778-486.4 2.730667-273.493333-216.803556-495.786667-490.666667-496.469333zM378.311111 640.056889v-86.869333H19.456a9.159111 9.159111 0 0 1-9.130667-9.130667v-64c0-5.034667 4.096-9.159111 9.130667-9.159111H378.311111v-86.840889c0-7.68 8.903111-12.003556 14.848-7.196445l162.190222 128a9.159111 9.159111 0 0 1 0 14.392889l-162.190222 128a9.216 9.216 0 0 1-14.848-7.196444z" p-id="2817"></path></svg>