<?xml version="1.0" standalone="no"?><!DOCTYPE svg PUBLIC "-//W3C//DTD SVG 1.1//EN" "http://www.w3.org/Graphics/SVG/1.1/DTD/svg11.dtd"><svg t="1690130140445" class="icon" viewBox="0 0 1024 1024" version="1.1" xmlns="http://www.w3.org/2000/svg" p-id="1830" xmlns:xlink="http://www.w3.org/1999/xlink" width="64" height="64"><path d="M369.924 583.063804H172.369721c-28.28102 0-51.194839 22.913819-51.194839 51.194839v197.554279c0 28.28102 22.913819 51.194839 51.194839 51.194839h197.554279c28.28102 0 51.194839-22.913819 51.194839-51.194839V634.258643c-0.103215-28.28102-23.017035-51.194839-51.194839-51.194839zM810.75698 583.063804H613.202701c-28.28102 0-51.194839 22.913819-51.194839 51.194839v197.554279c0 28.28102 22.913819 51.194839 51.194839 51.194839h197.554279c28.28102 0 51.194839-22.913819 51.194839-51.194839V634.258643c0-28.28102-22.913819-51.194839-51.194839-51.194839zM369.924 181.968753H172.369721c-28.28102 0-51.194839 22.913819-51.194839 51.194839v197.554279c0 28.28102 22.913819 51.194839 51.194839 51.194839h197.554279c28.28102 0 51.194839-22.913819 51.194839-51.194839V233.060377c-0.103215-28.177805-23.017035-51.091624-51.194839-51.091624zM887.858885 295.712126L748.105231 156.061687c-20.023788-20.023788-52.330209-20.023788-72.353996 0L536.100796 295.712126c-20.023788 20.023788-20.023788 52.330209 0 72.353996l139.753654 139.753654c20.023788 20.023788 52.330209 20.023788 72.353997 0l139.753654-139.753654c19.817357-20.023788 19.817357-52.330209-0.103216-72.353996z" p-id="1831"></path></svg>