<?xml version="1.0" standalone="no"?><!DOCTYPE svg PUBLIC "-//W3C//DTD SVG 1.1//EN" "http://www.w3.org/Graphics/SVG/1.1/DTD/svg11.dtd"><svg t="1690004333288" class="icon" viewBox="0 0 1024 1024" version="1.1" xmlns="http://www.w3.org/2000/svg" p-id="1770" xmlns:xlink="http://www.w3.org/1999/xlink" width="64" height="64"><path d="M964.572 203.93H58.884c-22.092 0-40-17.908-40-40s17.908-40 40-40h905.688c22.092 0 40 17.909 40 40s-17.908 40-40 40zM965.116 552.816H477.438c-22.092 0-40-17.908-40-40s17.908-40 40-40h487.678c22.092 0 40 17.909 40 40s-17.908 40-40 40zM965.116 900.07H59.428c-22.092 0-40-17.909-40-40s17.908-40 40-40h905.688c22.092 0 40 17.908 40 40s-17.908 40-40 40zM78.102 728.242a57.777 57.777 0 0 1-22.131-4.419c-21.632-8.96-35.61-29.878-35.61-53.292V348.57c0-23.413 13.978-44.33 35.609-53.29 20.638-8.546 44.04-4.473 60.524 10.293l208.1 161.412 1.781 1.782c22.487 22.49 22.486 59.083-0.002 81.57l-1.78 1.781-1.989 1.542-206.109 159.87c-10.75 9.63-24.444 14.712-38.393 14.713z m22.26-333.938v230.494L248.942 509.55 100.361 394.304z" p-id="1771"></path></svg>