<?xml version="1.0" standalone="no"?><!DOCTYPE svg PUBLIC "-//W3C//DTD SVG 1.1//EN" "http://www.w3.org/Graphics/SVG/1.1/DTD/svg11.dtd"><svg t="1689998144240" class="icon" viewBox="0 0 1024 1024" version="1.1" xmlns="http://www.w3.org/2000/svg" p-id="1591" xmlns:xlink="http://www.w3.org/1999/xlink" width="64" height="64"><path d="M660.992 997.376c-14.848 0-29.696-5.632-40.448-15.36-15.872-14.336-69.12-55.808-107.008-55.808-38.4 0-91.648 41.472-107.008 55.808-16.384 15.36-43.008 19.456-62.976 10.752l-3.072-1.536-154.112-89.088c-17.92-13.312-27.136-38.4-22.016-59.904 4.608-20.992 13.824-87.552-5.12-120.832-18.944-32.768-81.408-58.368-101.888-65.024-20.48-6.144-37.888-26.112-41.472-47.104-0.512-2.048-9.216-54.272-9.216-92.672 0-38.4 8.704-90.112 9.216-92.672 3.584-20.992 20.992-40.96 41.472-47.104 20.48-6.144 82.944-31.744 101.888-65.024 18.944-33.28 9.728-99.84 5.12-120.832-5.12-21.504 4.096-46.592 22.016-59.904l3.072-2.048L342.528 40.448c20.48-9.216 47.104-4.608 62.976 10.752 15.872 14.336 69.12 55.808 107.008 55.808 38.4 0 91.648-41.472 107.008-55.808 16.384-15.36 43.008-19.456 62.976-10.752l3.072 1.536L839.68 131.072c17.92 13.312 27.136 38.4 22.016 59.904-4.608 20.992-13.824 87.552 5.12 120.832 18.944 32.768 81.408 58.368 101.888 65.024 20.48 6.144 37.888 26.112 41.472 47.104 0.512 2.048 9.216 54.272 9.216 92.672 0 38.4-8.704 90.112-9.216 92.672-3.584 20.992-20.992 40.96-41.472 47.104s-82.944 31.744-101.888 65.024c-18.944 33.28-9.728 99.84-5.12 120.832 5.12 21.504-4.096 46.592-22.016 59.904l-3.072 2.048-154.112 89.088c-6.144 2.56-13.824 4.096-21.504 4.096zM225.28 852.48l140.288 81.408c15.36-13.824 82.432-70.656 147.456-70.656s132.096 56.832 147.456 70.656l140.288-81.408c-4.096-19.968-19.968-106.496 12.8-162.816 33.28-57.856 120.832-87.552 136.192-92.672 1.536-8.704 8.192-50.688 8.192-80.384 0-29.696-6.656-72.192-8.192-80.384-15.872-5.12-102.912-34.816-136.192-92.672-32.256-56.32-16.896-142.848-12.8-162.816L660.48 99.328c-15.36 13.824-82.432 70.656-147.456 70.656S380.928 113.152 365.568 99.328L225.28 180.224c4.096 19.968 19.968 106.496-12.8 162.816C179.2 400.896 92.16 430.592 76.288 435.712c-1.536 8.704-8.192 50.688-8.192 80.384 0 29.696 6.656 72.192 8.192 80.384 15.872 5.12 102.912 34.816 136.192 92.672 32.256 56.832 16.896 143.36 12.8 163.328z" p-id="1592"></path><path d="M513.024 729.6c-117.76 0-212.992-95.744-212.992-213.504s95.744-213.504 213.504-213.504 212.992 95.744 212.992 213.504-95.744 213.504-213.504 213.504z m0-364.032c-82.944 0-150.528 67.584-150.528 150.528s67.584 150.528 150.528 150.528 150.528-67.584 150.528-150.528-67.584-150.528-150.528-150.528z" p-id="1593"></path></svg>